<?xml version="1.0" encoding="utf-8"?>
<!-- Generator: Adobe Illustrator 23.0.1, SVG Export Plug-In . SVG Version: 6.00 Build 0)  -->
<svg version="1.1" id="Layer_1" xmlns="http://www.w3.org/2000/svg" xmlns:xlink="http://www.w3.org/1999/xlink" x="0px" y="0px"
	 viewBox="0 0 559 68" style="enable-background:new 0 0 559 68;" xml:space="preserve">
<style type="text/css">
	.st0{fill:#85754E;}
	.st1{fill:#FFFFFF;}
</style>
<g>
	<path class="st0" d="M431.08,32.57c0.23-4.16-1.06-7.54-2.86-11.22c-3.16-6.5-3.31-14.28-11.71-15.4c-2.34-0.32-4.56-0.32-6.85-1
		c-2.6-0.78-5.13-1.77-7.76-2.46c-2.08-0.55-4.02-0.65-5.94-0.41l-0.03-0.01c-1.72-0.89-3.6-1.33-5.66-0.92
		c-3.23,0.64-6.53,2.25-8.69,4.78c-1.26,1.47-2.06,3.29-2.66,5.16l0.01-0.01l-0.01,0.02l0,0c0-0.01,0-0.01,0.01-0.02
		c-0.07,0.08-0.13,0.16-0.19,0.23c-0.21,0.26-0.4,0.51-0.54,0.73c0,0,0,0.01-0.01,0.01c-0.69,0.99-1.26,2.08-1.69,3.26
		c-0.38,0.91-0.66,1.85-0.88,2.81c0,0.01,0,0.01,0,0.02c-0.04,0.17-0.08,0.36-0.12,0.56c-1.59,2.65-3.1,5.37-3.38,8.4
		c-0.23,2.4,0.47,4.4,1.24,6.65c0.78,2.31,1.6,4.62,2.6,6.85c1.89,4.23,4.6,7.46,8.75,9.56c2.66,1.35,4.93,3.51,6.88,5.74
		c1.59,1.82,2.65,3.46,4.73,4.78c3.7,2.33,8.41,4,12.56,5.28c3.68,1.14,7.26,0.82,9.56-2.55c1.64-2.42,2.21-5.24,4.16-7.52
		c1.75-2.05,3.88-3.68,5.41-5.93c1.97-2.91,1.61-6.09,0.77-9.2v0.01v-0.02v0.01c0.08-0.38,0.16-0.77,0.23-1.15
		C430.05,37.38,430.95,35.12,431.08,32.57z M401.41,60.37c-0.4-0.53-0.74-1.1-1.06-1.69c0.99,0.74,2,1.43,3.09,1.99
		c2.73,1.4,6.43,1.24,9.33,0.68c1.55-0.3,2.96-0.95,4.22-1.86c-0.39,0.51-0.79,1.01-1.22,1.48c-1.92,2.11-4.73,3.62-7.61,3.63
		C405.34,64.6,403.02,62.5,401.41,60.37z M418.94,12.4c2.25,1.23,4.08,2.97,5.44,5.13c0.77,1.22,1.24,2.52,1.53,3.87l0,0l0,0l0,0
		c-1.84-2.37-4.11-4.47-6.23-6.48c-1.51-1.44-2.99-2.87-4.51-4.23c0,0,0,0-0.01,0l0,0c0,0,0,0,0.01,0.01
		C416.47,11.18,417.73,11.73,418.94,12.4z M428.77,31.25c0.07,2-0.43,3.87-1.15,5.68v0.01h-0.01c0,0,0-0.01,0.01-0.01
		c0-0.01,0-0.01-0.01-0.02c-1.29-4.28-0.53-8.97-0.94-13.37l0,0c0.47,0.74,0.88,1.52,1.24,2.32
		C428.39,27.57,428.7,29.34,428.77,31.25z M425.1,42.33c-2.84,6.12-5.89,14.43-12.96,16.71c-7.32,2.36-12.72-4.86-18.11-8.48
		c-2.05-1.38-4.14-2.68-6.07-4.22c-0.5-0.93-0.94-1.9-1.37-2.77c-1.65-3.32-2.94-6.81-4.64-10.12c-1.8-3.5-4.13-6.74-4.13-10.84
		c0.01-3.33,1.74-6.58,2.75-9.83c2.81-3.59,7.62-5.75,11.71-7.36c2.23-0.88,4.34-1.07,6.4-0.88h0.01c2,1.47,4.19,2.35,6.55,3.08
		c2.95,0.92,5.99,1.66,8.92,2.69h0.01c2.56,2.21,4.93,4.71,7.31,7.03c1.72,1.68,3.35,3.44,4.66,5.37l0,0l0,0l0,0
		c0.22,1.65,0.22,3.35,0.17,5.02c-0.08,2.7-0.14,5.35,0.47,8c0.15,0.66,0.33,1.3,0.53,1.95c0-0.01,0.01-0.01,0.01-0.02v0.03
		c0-0.01,0-0.01-0.01-0.02C426.63,39.27,425.81,40.81,425.1,42.33z M378.68,16.26c0.02-0.03,0.03-0.07,0.04-0.1
		c0.03-0.06,0.06-0.12,0.08-0.18c0.23-0.63,0.5-1.23,0.83-1.79c-0.85,2.6-1.89,5.13-2.15,7.77
		C377.55,19.95,377.92,18.01,378.68,16.26z M413.18,9.48c-1.63-0.52-3.28-0.98-4.89-1.45c-2.98-0.88-5.88-1.73-8.48-3.35l0,0l0,0
		l0,0c3.66,0.57,7.18,2.18,10.98,3.01C411.61,8.25,412.4,8.86,413.18,9.48L413.18,9.48z M377.83,26.26c0.69,2.4,2.12,4.59,3.31,6.76
		c1.48,2.67,2.63,5.52,3.86,8.32c0.62,1.4,1.27,2.82,2,4.18c-0.33-0.29-0.66-0.59-0.98-0.9c-2.6-2.55-4.18-6.15-5.67-9.41
		c-1.33-2.91-2.41-6.47-2.77-10.02C377.64,25.55,377.72,25.9,377.83,26.26z M427.69,42.4c0.13-0.3,0.28-0.59,0.42-0.88
		c-0.51,2.62-1.07,5.41-2.13,7.8c-0.8,1.8-2.37,3.16-3.89,4.44C424.48,49.97,426.22,45.58,427.69,42.4z M422.08,12.12
		c0.66,1.29,1.29,2.6,1.9,3.92l0,0c-0.06-0.08-0.12-0.14-0.18-0.22c-2.52-3.07-5.96-4.74-9.6-5.99l-0.01-0.01
		c-0.78-0.67-1.56-1.31-2.38-1.92c0.33,0.06,0.67,0.11,1.01,0.16C416.64,8.55,420.05,8.18,422.08,12.12z M389.74,1.77
		c1.96-0.52,3.66-0.23,5.24,0.46l0,0c-1.44,0.27-2.86,0.71-4.33,1.29c-3.66,1.44-7.49,3.35-10.35,6.09l0,0c0,0-0.01,0.01-0.02,0.02
		c-0.13,0.13-0.27,0.27-0.4,0.4l0,0c0.38-0.98,0.84-1.93,1.4-2.84C383.07,4.31,386.56,2.6,389.74,1.77z M394.47,58.71
		c-1.48-1.33-2.55-3.22-3.94-4.67c-1.64-1.69-3.52-3.15-5.58-4.29c-4.07-2.28-6.6-5.13-8.57-9.38c-0.93-1.99-1.64-4.07-2.35-6.14
		c-0.88-2.55-1.74-4.88-1.34-7.62c0.35-2.34,1.4-4.48,2.6-6.56c0.05-0.38,0.1-0.77,0.18-1.15c-0.07,0.41-0.13,0.83-0.17,1.14
		c0,0,0,0.01-0.01,0.01c-0.02,0.13-0.03,0.26-0.04,0.39c0,0.02,0,0.03,0,0.03l0,0c-0.48,4.69,0.58,9.69,2.15,13.94
		c1.27,3.46,3.06,7.11,5.33,10.02c2.75,3.51,6.41,5.77,10.09,8.22c2.35,1.55,4.43,3.59,6.65,5.38c0.88,1.52,1.68,3.02,2.95,4.35
		c0.44,0.47,0.94,0.88,1.44,1.24l0,0l0,0l0,0c-0.71-0.29-1.43-0.59-2.14-0.88C399.17,61.69,396.55,60.57,394.47,58.71z
		 M420.33,58.33c-1.35,2.51-1.95,5.42-4.52,7.04c-2.34,1.47-5.49,0.57-7.88-0.23c-0.13-0.04-0.25-0.08-0.38-0.13h-0.01l0,0
		c0,0,0,0,0.01,0c1.44,0.18,2.93-0.02,4.35-0.68c4.78-2.22,6.96-7.12,10.83-10.45c1.64-1.41,3.06-2.85,3.96-4.84
		c0.97-2.18,1.39-4.8,1.88-7.19h0.01c0.18,0.73,0.33,1.46,0.42,2.22C429.69,50.49,422.99,53.4,420.33,58.33z"/>
	<path class="st0" d="M417.75,16.09c-6.23-2.6-13.63-2.39-20.24-3.71c-0.78-1.72-1.44-2.34-3.73-2.73c-0.92-0.17-1.7-0.18-2.38-0.06
		c-0.54-0.47-1.1-0.88-1.79-1.19c-1.79-0.83-3.46,0.51-4.71,1.66c-0.05,0.03-0.1,0.08-0.14,0.13c-0.06,0.06-0.11,0.12-0.14,0.18
		c-3.47,4.27-4.07,9.63-3.01,14.93c0.98,4.89,4.28,8.68,7.61,12.37c0.44,1.92,1.2,3.69,2.96,4.96c0.73,0.53,1.51,1,2.3,1.42
		c3.28,4.69,5.91,9.51,11.98,10.87c4.47,1,8.86-1.02,11.27-4.78c2.07-3.23,2.64-7.66,3.73-11.29c1.01-3.38,3.18-6.62,3.52-10.17
		C425.48,23.52,422.66,18.13,417.75,16.09z M394.32,41.3c-1.52-2.09-3.3-3.97-5.02-5.89c-0.28-1.79-0.58-3.52-1.21-5.26
		c-0.98-2.71-0.22-5.32-0.5-8.11c-0.28-2.86,0.13-5.52,0.68-8.32c0.31-1.54,0.98-2.59,1.95-3.16c0.58,0.53,1.16,1.2,1.93,1.72
		c1.58,1.06,3.64,1.29,5.49,1.68c0.58,1.37,1.25,2.65,2.33,3.71c1.25,1.24,3.06,1.73,4.74,2c1.14,0.19,2.3,0.27,3.44,0.51
		c1.53,0.32,2.91,1.25,4.17,2.11c2.01,1.37,3.74,3.11,4.95,5.23c1.59,2.76,1.01,5.68,0.03,8.52c-0.8,2.33-1.67,4.53-2.12,6.97
		c-0.46,2.47-1.16,5.17-3.87,5.93c-2.2,0.62-4.52-0.53-6.49-1.34c-2.05-0.83-4.14-1.54-6.21-2.31c-0.74-0.28-1.49-0.57-2.21-0.88
		C395.69,43.3,395.02,42.25,394.32,41.3z M393.65,10.12c0.74,0.13,1.54,0.19,2.22,0.53c0.53,0.26,0.88,0.94,1.14,1.62
		c-0.08-0.02-0.15-0.03-0.23-0.05c-1.86-0.41-3.35-0.73-4.77-2.07c-0.04-0.04-0.09-0.08-0.13-0.13
		C392.43,9.98,393.01,10.02,393.65,10.12z M384.41,28.8c-2.87-5.37-2.53-12.85,1.4-17.55c2-1.87,3.06-1.75,4.03-1.03
		c-1.27,0.88-1.92,2.55-2.31,4.72c-0.49,2.71-0.64,5.07-0.36,7.81c0.14,1.44-0.1,2.82-0.2,4.25c-0.1,1.35,0.42,2.63,0.87,3.87
		c0.43,1.2,0.65,2.5,0.85,3.82C387.08,32.87,385.57,30.97,384.41,28.8z M389.95,38.49c1.36,1.51,2.7,3.02,3.84,4.6
		c-0.33-0.18-0.64-0.38-0.95-0.58C391.29,41.48,390.45,40.08,389.95,38.49z M420.96,35.75c-1.14,2.76-1.82,5.71-2.64,8.58
		c-1.78,6.24-5.51,10.47-12.41,8.93c-4.16-0.93-6.74-4.54-9.03-8.11c2.86,1.19,5.9,2.03,8.7,3.3c3.48,1.58,7.5,1.7,9.23-2.2
		c0.85-1.94,0.95-4.15,1.54-6.16c0.8-2.7,2.09-5.19,2.44-8.02c0.56-4.56-3.39-8.3-6.79-10.61c-2.26-1.54-4.5-1.92-7.15-2.28
		c-3.37-0.46-5.27-2.28-6.6-5.11c4.8,1.03,9.68,1.34,14.51,2.12c5.92,0.95,10.66,4.85,10.84,11.23
		C423.69,30.24,422.01,33.23,420.96,35.75z"/>
</g>
<g>
	<path class="st1" d="M1.36,56.94v-0.8c1.34-0.07,2.42-0.26,3.24-0.57c0.82-0.31,1.54-0.79,2.16-1.44C7.5,53.4,8,52.46,8.26,51.33
		c0.25-1.14,0.38-2.89,0.38-5.27V20.53c0-2.38-0.13-4.13-0.38-5.27c-0.25-1.13-0.75-2.07-1.49-2.81C6.14,11.79,5.41,11.3,4.58,11
		c-0.83-0.3-1.9-0.48-3.22-0.55V9.66h22.77c2.31,0,3.82,0.03,4.54,0.07c2.63,0.21,4.82,0.83,6.55,1.87c1.5,0.93,2.66,2.14,3.48,3.64
		c0.82,1.5,1.23,3.19,1.23,5.06c0,3.02-0.94,5.51-2.81,7.45c-0.67,0.72-1.44,1.31-2.29,1.79c-0.85,0.48-2.09,1-3.71,1.58
		c2.22,0.37,3.94,0.78,5.16,1.21c1.23,0.44,2.33,1.05,3.32,1.84c1.48,1.2,2.63,2.7,3.45,4.49c0.82,1.79,1.23,3.72,1.23,5.8
		c0,2.1-0.42,4.02-1.26,5.77c-0.84,1.74-2.02,3.15-3.51,4.21c-1.36,0.94-2.99,1.6-4.87,1.98c-1.89,0.37-4.53,0.55-7.96,0.55
		L1.36,56.94L1.36,56.94z M16.22,10.73V31.3h2.81c1.32,0,2.68-0.09,4.09-0.28c1.23-0.18,2.21-0.4,2.96-0.66
		c0.75-0.25,1.44-0.6,2.06-1.04c1.18-0.88,2.09-2,2.72-3.38c0.63-1.38,0.95-2.9,0.95-4.56c0-1.75-0.33-3.42-0.99-5.01
		c-0.66-1.59-1.53-2.81-2.61-3.69c-0.94-0.76-2.03-1.29-3.24-1.56c-1.21-0.28-3.06-0.42-5.53-0.42L16.22,10.73L16.22,10.73z
		 M16.22,32.38v14.28c0,1.73,0.13,3.13,0.37,4.19c0.24,1.06,0.64,1.96,1.19,2.7c1.18,1.54,3.2,2.32,6.06,2.32
		c3.72,0,6.66-1.02,8.82-3.05c2.16-2.03,3.24-4.8,3.24-8.32c0-2.01-0.33-3.87-1-5.59c-0.67-1.72-1.57-3.05-2.7-3.97
		c-2.08-1.71-5.33-2.56-9.78-2.56L16.22,32.38L16.22,32.38z"/>
	<path class="st1" d="M99.84,9.65l0.59,11.44l-0.79,0.03c-0.3-1.94-0.79-3.55-1.49-4.82s-1.69-2.39-3.01-3.36
		c-1.09-0.81-2.37-1.38-3.85-1.71c-1.48-0.33-3.44-0.5-5.89-0.5h-7.93v20.79h2.06c2.1,0,3.68-0.14,4.75-0.42
		c1.06-0.28,1.93-0.78,2.6-1.49c0.64-0.67,1.13-1.46,1.44-2.37c0.31-0.91,0.57-2.25,0.78-4.04l0.79,0.03l-0.14,18.58h-0.79
		c-0.21-1.78-0.52-3.21-0.92-4.3c-0.4-1.09-0.97-2.01-1.68-2.77c-0.69-0.74-1.59-1.29-2.7-1.63c-1.11-0.35-2.52-0.52-4.22-0.52
		h-1.98v7.93c0,3.16,0.08,5.47,0.24,6.91c0.16,1.44,0.48,2.65,0.94,3.62c0.78,1.66,1.98,2.88,3.59,3.66
		c1.6,0.78,3.72,1.16,6.36,1.16c2.77,0,5.09-0.35,6.96-1.06c1.87-0.7,3.4-1.79,4.58-3.27c0.83-0.99,1.51-2.12,2.03-3.4
		c0.52-1.27,1-2.95,1.44-5.03l0.8,0.03l-0.45,13.79H62.59v-0.8c1.32-0.07,2.39-0.25,3.21-0.55c0.82-0.3,1.55-0.78,2.2-1.45
		c0.72-0.74,1.21-1.68,1.47-2.82c0.27-1.14,0.4-2.9,0.4-5.25V20.53c0-2.35-0.13-4.11-0.4-5.25c-0.27-1.14-0.76-2.09-1.47-2.82
		c-0.63-0.67-1.34-1.15-2.16-1.45c-0.82-0.3-1.9-0.48-3.24-0.55V9.66L99.84,9.65L99.84,9.65z"/>
	<path class="st1" d="M132.53,15.92v30.15c0,2.38,0.13,4.13,0.4,5.27c0.27,1.14,0.76,2.07,1.47,2.81c0.64,0.67,1.38,1.15,2.2,1.45
		c0.82,0.3,1.89,0.48,3.21,0.55v0.8h-15.97v-0.8c1.32-0.07,2.39-0.25,3.21-0.55c0.82-0.3,1.55-0.78,2.2-1.45
		c0.72-0.74,1.21-1.68,1.47-2.82c0.27-1.14,0.4-2.9,0.4-5.25V20.49c0-2.33-0.13-4.07-0.4-5.22c-0.27-1.14-0.76-2.09-1.47-2.82
		c-0.63-0.67-1.34-1.15-2.16-1.45c-0.82-0.3-1.9-0.48-3.24-0.55V9.66h13.34l28.14,35.9V20.53c0-2.38-0.13-4.13-0.4-5.27
		c-0.27-1.13-0.76-2.07-1.47-2.81c-0.65-0.67-1.38-1.15-2.2-1.45c-0.82-0.3-1.89-0.48-3.21-0.55V9.66h15.97v0.79
		c-2.31,0-4.11,0.67-5.4,2.01c-0.72,0.74-1.21,1.68-1.47,2.82c-0.27,1.14-0.4,2.88-0.4,5.22v36.45h-1.56L132.53,15.92z"/>
	<path class="st1" d="M199.33,15.92v30.15c0,2.38,0.13,4.13,0.4,5.27s0.76,2.07,1.47,2.81c0.64,0.67,1.38,1.15,2.2,1.45
		c0.82,0.3,1.89,0.48,3.21,0.55v0.8h-15.97v-0.8c1.32-0.07,2.39-0.25,3.21-0.55c0.82-0.3,1.55-0.78,2.2-1.45
		c0.72-0.74,1.21-1.68,1.47-2.82c0.27-1.14,0.4-2.9,0.4-5.25V20.49c0-2.33-0.13-4.07-0.4-5.22s-0.76-2.09-1.47-2.82
		c-0.63-0.67-1.34-1.15-2.16-1.45c-0.82-0.3-1.9-0.48-3.24-0.55V9.66h13.34l28.14,35.9V20.53c0-2.38-0.13-4.13-0.4-5.27
		c-0.27-1.13-0.76-2.07-1.47-2.81c-0.65-0.67-1.38-1.15-2.2-1.45c-0.82-0.3-1.89-0.48-3.21-0.55V9.66h15.97v0.79
		c-2.31,0-4.11,0.67-5.4,2.01c-0.72,0.74-1.21,1.68-1.47,2.82c-0.27,1.14-0.4,2.88-0.4,5.22v36.45h-1.56L199.33,15.92z"/>
	<path class="st1" d="M296.11,9.65l0.58,11.44l-0.79,0.03c-0.3-1.94-0.79-3.55-1.49-4.82s-1.69-2.39-3.01-3.36
		c-1.09-0.81-2.37-1.38-3.85-1.71c-1.48-0.33-3.44-0.5-5.89-0.5h-7.93v20.79h2.08c2.1,0,3.68-0.14,4.75-0.42
		c1.06-0.28,1.93-0.78,2.6-1.49c0.64-0.67,1.13-1.46,1.44-2.37c0.31-0.91,0.57-2.25,0.78-4.04l0.79,0.03l-0.14,18.58h-0.79
		c-0.21-1.78-0.52-3.21-0.92-4.3c-0.4-1.09-0.97-2.01-1.68-2.77c-0.69-0.74-1.59-1.29-2.7-1.63c-1.11-0.35-2.52-0.52-4.22-0.52
		h-1.98v7.93c0,3.16,0.08,5.47,0.24,6.91c0.16,1.44,0.48,2.65,0.94,3.62c0.78,1.66,1.98,2.88,3.59,3.66
		c1.6,0.78,3.72,1.16,6.36,1.16c2.77,0,5.09-0.35,6.96-1.06c1.87-0.7,3.4-1.79,4.58-3.27c0.83-0.99,1.51-2.12,2.03-3.4
		c0.52-1.27,1-2.95,1.44-5.03l0.8,0.03l-0.45,13.79h-41.33v-0.8c1.32-0.07,2.39-0.25,3.21-0.55s1.55-0.78,2.2-1.45
		c0.72-0.74,1.21-1.68,1.47-2.82c0.27-1.14,0.4-2.9,0.4-5.25V20.53c0-2.35-0.13-4.11-0.4-5.25c-0.27-1.14-0.76-2.09-1.47-2.82
		c-0.63-0.67-1.34-1.15-2.16-1.45c-0.82-0.3-1.9-0.48-3.24-0.55V9.66L296.11,9.65L296.11,9.65z"/>
	<path class="st1" d="M321.52,56.94v-0.83c2.33,0,4.13-0.66,5.4-1.98c0.72-0.74,1.21-1.68,1.47-2.82c0.27-1.14,0.4-2.9,0.4-5.25
		V20.53c0-2.45-0.14-4.26-0.43-5.43c-0.29-1.17-0.83-2.12-1.61-2.86c-0.65-0.6-1.37-1.04-2.16-1.32c-0.8-0.28-1.82-0.44-3.06-0.48
		V9.65h22.14v0.79c-1.27,0.07-2.31,0.24-3.12,0.52c-0.81,0.28-1.53,0.72-2.15,1.32c-0.78,0.76-1.32,1.72-1.59,2.87
		s-0.42,2.95-0.42,5.37v20c0,3.07,0.08,5.36,0.24,6.86s0.48,2.73,0.94,3.67c0.81,1.66,2.01,2.88,3.61,3.66
		c1.59,0.78,3.71,1.16,6.35,1.16c2.75,0,5.07-0.37,6.95-1.09c1.88-0.73,3.42-1.85,4.63-3.38c0.81-1.04,1.47-2.22,2-3.53
		c0.52-1.32,1-3.05,1.44-5.2l0.83,0.07l-0.45,14.21L321.52,56.94L321.52,56.94z"/>
	<path class="st1" d="M451.99,15.92v30.15c0,2.38,0.13,4.13,0.4,5.27c0.27,1.14,0.76,2.07,1.47,2.81c0.64,0.67,1.38,1.15,2.2,1.45
		c0.82,0.3,1.89,0.48,3.21,0.55v0.8h-15.98v-0.8c1.32-0.07,2.39-0.25,3.21-0.55c0.82-0.3,1.55-0.78,2.2-1.45
		c0.72-0.74,1.21-1.68,1.47-2.82c0.27-1.14,0.4-2.9,0.4-5.25V20.49c0-2.33-0.13-4.07-0.4-5.22c-0.27-1.14-0.76-2.09-1.47-2.82
		c-0.63-0.67-1.34-1.15-2.16-1.45c-0.82-0.3-1.9-0.48-3.24-0.55V9.66h13.34l28.14,35.9V20.53c0-2.38-0.13-4.13-0.4-5.27
		c-0.27-1.13-0.76-2.07-1.47-2.81c-0.65-0.67-1.38-1.15-2.2-1.45c-0.82-0.3-1.89-0.48-3.21-0.55V9.66h15.97v0.79
		c-2.31,0-4.11,0.67-5.4,2.01c-0.72,0.74-1.21,1.68-1.47,2.82c-0.27,1.14-0.4,2.88-0.4,5.22v36.45h-1.56L451.99,15.92z"/>
	<path class="st1" d="M550.21,9.65l0.42,15.07l-0.79,0.07c-1.59-5.13-3.64-8.94-6.14-11.45c-2.5-2.5-5.51-3.76-9.04-3.76
		c-2.75,0-5.11,0.56-7.09,1.68s-3.82,2.94-5.53,5.46c-3.46,5.15-5.2,11.05-5.2,17.67c0,3.16,0.42,6.15,1.24,8.96
		c0.83,2.81,2.05,5.28,3.64,7.43c3.1,4.16,6.87,6.24,11.33,6.24c1.75,0,3.41-0.37,4.95-1.11c1.54-0.73,2.82-1.75,3.82-3.05
		c1.36-1.8,2.05-3.94,2.05-6.41c0-2.29-0.62-3.94-1.85-4.95c-1.24-1.02-3.27-1.53-6.12-1.53v-0.79H558v0.79
		c-2.04,0.18-3.46,0.47-4.28,0.85c-0.82,0.38-1.43,1.04-1.82,1.96c-0.44,1.02-0.66,3.04-0.66,6.06c0,0.83,0.04,2.13,0.14,3.88
		l0.07,0.79c-0.88-0.33-1.53-0.48-1.94-0.48c-0.51,0-1.15,0.27-1.94,0.79c-2.01,1.39-4.34,2.45-7,3.19
		c-2.65,0.73-5.46,1.11-8.42,1.11c-4.07,0-7.73-0.69-11-2.08c-3.27-1.39-5.92-3.37-7.96-5.96c-1.53-1.94-2.7-4.25-3.51-6.93
		c-0.82-2.68-1.23-5.52-1.23-8.52c0-4.13,0.73-7.98,2.22-11.54c1.48-3.56,3.56-6.5,6.24-8.8c2.2-1.87,4.73-3.31,7.59-4.33
		c2.86-1.02,5.89-1.53,9.08-1.53c1.85,0,3.56,0.18,5.14,0.52c1.58,0.34,3.26,0.91,5.04,1.69l2.05,0.94
		c0.51,0.21,0.97,0.31,1.39,0.31c0.93,0,1.63-0.75,2.11-2.25h0.91V9.65z"/>
</g>
</svg>
